<?xml version="1.0" encoding="utf-8"?>
<!-- Generator: Adobe Illustrator 26.1.0, SVG Export Plug-In . SVG Version: 6.00 Build 0)  -->
<svg version="1.1" id="Layer_2" xmlns="http://www.w3.org/2000/svg" xmlns:xlink="http://www.w3.org/1999/xlink" x="0px" y="0px"
	 viewBox="0 0 566.93 566.93" style="enable-background:new 0 0 566.93 566.93;" xml:space="preserve">
<style type="text/css">
	.st0{fill:#1A1A1A;}
	.st1{fill:#696969;}
	.st2{fill:#666666;}
</style>
<g>
	<g>
		<path class="st0" d="M394.22,165.31c-7.32,0-13.25-5.93-13.25-13.25V88.46c0-7.32,5.93-13.25,13.25-13.25s13.25,5.93,13.25,13.25
			v63.59C407.47,159.38,401.54,165.31,394.22,165.31z"/>
	</g>
	<g>
		<path class="st1" d="M258.09,491.72c-7.73,0-14-6.27-14-14s6.27-14,14-14c8.52,0,52.59-1.57,82.89-32.61
			c25.68-26.3,39.25-53.94,39.25-79.93V193.23c0-7.73,6.27-14,14-14s14,6.27,14,14v157.95c0,33.44-16.33,67.85-47.22,99.49
			C322.87,489.74,268.58,491.72,258.09,491.72z"/>
	</g>
	<g>
		<path class="st0" d="M258.16,439.62c-65.85,0-91.41-56.54-94.21-70.54c-3.45-17.26-5.14-40.36-5.21-41.34
			c-0.55-7.71,5.25-14.41,12.96-14.97c7.71-0.55,14.41,5.25,14.97,12.96c0.02,0.22,1.63,22.34,4.73,37.85
			c0.1,0.42,15.23,48.03,66.75,48.03c24.66,0,43.57-9.57,56.19-28.46c10.2-15.24,13.9-33.36,13.9-41.82V141.38c0-7.73,6.27-14,14-14
			s14,6.27,14,14v199.96c0,10.97-3.92,35.41-18.62,57.39C325.15,417.39,301.24,439.62,258.16,439.62z"/>
	</g>
	<g>
		<g>
			<path class="st2" d="M257.72,386.78c-28.24,0-45.79-18.64-45.79-48.64v-21.23c0-7.32,5.93-13.25,13.25-13.25
				s13.25,5.93,13.25,13.25v21.23c0,22.14,13.52,22.14,19.29,22.14c9.38,0,19.41-5.79,19.41-22.03V192.48
				c0-7.32,5.93-13.25,13.25-13.25s13.25,5.93,13.25,13.25v145.77C303.63,366.37,284.32,386.78,257.72,386.78z"/>
		</g>
	</g>
	<g>
		<g>
			<path class="st2" d="M173.18,301.01c-7.32,0-13.25-5.93-13.25-13.25v-18.69c0-7.32,5.93-13.25,13.25-13.25
				s13.25,5.93,13.25,13.25v18.69C186.43,295.08,180.49,301.01,173.18,301.01z"/>
		</g>
	</g>
</g>
</svg>
